<?xml version="1.0" encoding="iso-8859-1"?>
<!-- Uploaded to: SVG Repo, www.svgrepo.com, Generator: SVG Repo Mixer Tools -->
<svg height="800px" width="800px" version="1.1" id="Layer_1" xmlns="http://www.w3.org/2000/svg" xmlns:xlink="http://www.w3.org/1999/xlink" 
	 viewBox="0 0 512 512" xml:space="preserve">
<path style="fill:#EADAC5;" d="M369.052,117.098v-4.046C369.052,50.615,318.437,0,256,0c-31.219,0-59.476,12.659-79.934,33.118
	s-33.118,48.716-33.118,79.934v361.66c0,20.594,16.694,37.288,37.288,37.288h151.527c20.594,0,37.288-16.694,37.288-37.288V256.87
	c0-17.305-10.941-32.733-27.274-38.464l-84.015-29.489c-32.213-11.303-53.768-41.719-53.768-75.865
	c0-14.355,5.821-27.364,15.236-36.768c9.404-9.415,22.414-15.236,36.768-15.236s27.364,5.821,36.768,15.236
	c9.415,9.404,15.236,22.414,15.236,36.768v4.046c0,16.864,13.665,30.529,30.518,30.529c8.432,0,16.061-3.413,21.589-8.941
	C365.638,133.16,369.052,125.53,369.052,117.098z"/>
<path style="fill:#FC583D;" d="M315.943,281.666c-33.105-33.105-86.78-33.105-119.886,0c-33.105,33.105-33.105,86.78,0,119.886
	s86.78,33.105,119.886,0S349.048,314.771,315.943,281.666z M219.141,304.75c16.009-16.009,39.838-19.42,59.189-10.248
	l-69.437,69.437C199.722,344.588,203.132,320.759,219.141,304.75z M233.67,388.714l69.437-69.437
	c9.172,19.351,5.761,43.179-10.248,59.189C276.849,394.477,253.021,397.887,233.67,388.714z"/>
</svg>